<?xml version="1.0" standalone="no"?>
<!DOCTYPE svg PUBLIC "-//W3C//DTD SVG 20010904//EN"
 "http://www.w3.org/TR/2001/REC-SVG-20010904/DTD/svg10.dtd">
<svg version="1.0" xmlns="http://www.w3.org/2000/svg"
 width="48px" height="48px">

<g transform="translate(0.000000,48.000000) scale(0.100000,-0.100000)"
fill="#FFFFFF" stroke="none">
<path d="M172 409 c-65 -32 -97 -94 -97 -186 0 -76 13 -106 66 -145 48 -36
174 -36 167 -1 -2 14 -14 16 -66 14 -57 -2 -65 0 -91 27 -78 77 -32 255 70
276 51 10 107 -10 129 -47 27 -44 28 -137 1 -161 -32 -29 -43 -11 -39 66 3 76
-4 88 -57 88 -39 -1 -61 -18 -80 -63 -19 -47 -19 -87 1 -115 17 -24 62 -30 82
-10 9 9 15 9 24 0 15 -15 53 -15 80 -1 26 14 48 68 48 116 -1 127 -121 199
-238 142z m98 -145 c0 -55 -14 -84 -40 -84 -17 0 -20 7 -20 43 0 45 22 87 46
87 10 0 14 -13 14 -46z"/>
</g>
</svg>
